<?xml version="1.0" standalone="no"?>
<!DOCTYPE svg PUBLIC "-//W3C//DTD SVG 20010904//EN"
 "http://www.w3.org/TR/2001/REC-SVG-20010904/DTD/svg10.dtd">
<svg version="1.0" xmlns="http://www.w3.org/2000/svg"
 width="254.000000pt" height="254.000000pt" viewBox="0 0 254.000000 254.000000"
 preserveAspectRatio="xMidYMid meet">
<metadata>
Created by potrace 1.11, written by Peter Selinger 2001-2013
</metadata>
<g transform="translate(0.000000,254.000000) scale(0.100000,-0.100000)"
fill="#000000" stroke="none">
<path d="M1261 2508 c-6 -16 -16 -40 -22 -55 l-11 -28 -17 38 -16 38 -19 -31
-18 -32 -17 26 c-16 24 -17 24 -29 6 -17 -27 -50 -25 -73 4 -26 33 -54 38 -84
14 -37 -29 -33 -73 10 -96 18 -9 65 -125 65 -160 0 -7 -20 -11 -51 -10 -58 0
-69 -9 -69 -60 0 -24 -8 -40 -28 -57 -15 -13 -34 -36 -42 -52 -8 -15 -23 -38
-34 -51 -29 -33 -30 -96 -1 -130 12 -15 25 -37 29 -49 4 -12 22 -35 41 -52 33
-29 35 -34 35 -93 0 -35 4 -69 9 -77 7 -11 33 -15 105 -15 53 0 96 -4 96 -8 0
-4 1 -11 3 -15 1 -5 -70 -10 -158 -13 -154 -5 -160 -6 -170 -27 -5 -13 -19
-23 -30 -23 -47 -1 -142 -13 -163 -21 -18 -7 -21 -13 -14 -25 7 -12 0 -24 -27
-49 -32 -30 -35 -37 -33 -81 1 -43 -3 -55 -34 -94 -20 -25 -40 -46 -45 -46 -5
-1 -18 -2 -28 -3 -24 -1 -74 -53 -82 -83 -13 -52 29 -122 81 -133 21 -5 33
-20 60 -74 30 -63 32 -71 20 -105 -13 -39 -1 -94 24 -116 8 -6 12 -19 9 -29
-3 -11 11 -47 34 -84 l38 -65 48 3 c27 2 51 6 54 9 3 2 -11 34 -31 69 l-36 64
24 16 c24 16 25 16 66 -48 23 -36 44 -65 46 -65 2 0 15 20 29 44 29 50 29 49
-26 131 -17 25 -37 45 -45 45 -8 0 -18 10 -23 23 -11 27 -49 63 -76 71 -13 4
-35 34 -57 77 -31 60 -35 76 -27 98 6 14 8 44 5 66 -5 35 -1 45 27 77 18 20
44 38 58 40 13 2 34 9 47 16 18 11 22 10 22 -2 0 -18 33 -30 60 -21 19 6 20 0
22 -232 l3 -238 55 -3 c54 -3 56 -4 73 -43 9 -21 17 -46 17 -54 0 -8 9 -15 20
-15 19 0 23 -8 23 -45 0 -69 -5 -85 -33 -115 -34 -36 -43 -100 -14 -100 18 0
53 -73 55 -116 3 -49 0 -64 -14 -64 -16 0 -57 -42 -57 -58 0 -7 -11 -17 -25
-22 -14 -5 -26 -18 -26 -30 -1 -11 -2 -26 -3 -32 -1 -7 1 -18 5 -23 8 -11 354
-13 365 -3 11 11 7 72 -5 76 -7 2 -23 22 -37 43 -14 22 -36 44 -51 50 -25 9
-25 12 -19 65 8 67 28 110 55 117 30 7 22 62 -12 90 -25 21 -45 81 -41 127 1
8 2 21 3 28 0 6 7 12 14 12 7 0 19 16 25 34 15 42 66 76 113 76 43 0 97 -37
105 -74 4 -17 14 -31 26 -34 19 -5 20 -11 15 -68 -7 -68 -22 -101 -49 -110
-27 -8 -26 -84 1 -84 23 0 51 -63 55 -125 3 -39 1 -44 -29 -58 -18 -9 -37 -26
-40 -39 -4 -12 -18 -30 -31 -40 -27 -22 -30 -75 -5 -86 9 -4 79 -7 156 -6 230
3 205 -2 205 44 0 33 -4 42 -29 54 -16 9 -31 24 -34 36 -3 11 -19 28 -36 37
-30 17 -31 21 -26 65 6 58 32 115 56 121 17 5 18 11 10 80 -1 4 -7 7 -14 7
-20 0 -38 48 -43 113 -3 55 -3 57 22 57 14 0 23 4 20 9 -4 5 3 30 14 55 19 46
19 46 69 46 38 0 52 4 59 18 4 9 8 117 7 240 l-1 222 38 0 c28 0 38 4 38 16 0
11 5 14 18 9 9 -4 31 -9 48 -12 21 -3 44 -20 68 -49 30 -36 35 -48 29 -71 -8
-32 -5 -64 7 -77 14 -15 -67 -166 -89 -166 -21 0 -67 -43 -76 -71 -4 -10 -13
-19 -21 -19 -8 0 -34 -30 -57 -67 l-44 -68 26 -42 c14 -24 29 -43 32 -43 4 0
22 23 40 52 19 28 37 55 40 60 3 5 17 4 32 -3 l26 -12 -40 -72 -40 -73 57 2
57 1 38 62 c21 35 36 69 33 77 -3 8 4 28 17 45 23 32 28 86 10 120 -14 25 55
161 81 161 10 0 32 13 50 29 28 25 33 36 33 74 0 55 -29 92 -87 109 -24 7 -51
26 -73 53 -29 36 -33 48 -29 77 7 40 -14 88 -47 112 -15 10 -19 20 -14 35 4
12 2 22 -4 22 -6 1 -14 2 -18 3 -5 1 -42 6 -83 10 -82 8 -93 12 -103 39 -7 19
-7 19 -194 17 -125 -1 -133 0 -133 18 0 17 8 19 86 20 127 2 124 0 124 86 0
68 2 74 28 93 16 12 37 37 46 57 9 20 21 36 25 36 13 0 31 48 31 82 0 37 -41
108 -92 160 -27 26 -38 46 -38 67 0 42 -22 60 -70 57 -22 -2 -42 0 -45 4 -2 3
6 39 19 80 17 54 30 77 50 89 37 22 39 64 4 94 -28 24 -43 22 -78 -11 -28 -27
-57 -33 -122 -23 -5 1 -14 16 -22 34 -12 29 -14 30 -21 12 -4 -11 -15 -36 -23
-55 l-14 -35 -23 60 c-23 59 -23 60 -34 33z m54 -146 c2 -3 9 7 15 22 34 88
30 82 44 64 10 -14 27 -18 69 -18 76 0 81 -11 47 -119 l-27 -86 -189 0 -189 0
-24 87 c-13 47 -21 93 -18 102 4 10 19 16 41 16 19 0 36 6 39 13 3 6 10 -1 16
-18 l12 -29 23 28 22 28 18 -43 c17 -42 18 -43 26 -19 4 14 13 39 20 55 l12
30 19 -54 c10 -30 21 -56 24 -59z m-149 -273 c21 -17 44 -64 44 -89 0 -61 -60
-120 -123 -120 -62 0 -122 78 -110 143 7 34 55 84 86 89 30 5 84 -7 103 -23z
m362 5 c58 -37 66 -128 16 -178 -73 -72 -197 -21 -197 83 0 93 101 146 181 95z
m173 -71 c6 -19 9 -67 7 -107 -3 -62 -8 -79 -33 -112 l-30 -39 -5 125 c-3 69
-3 144 -1 168 l3 43 24 -22 c13 -12 29 -37 35 -56z m-786 -92 c0 -144 -1 -157
-16 -148 -34 21 -50 65 -51 139 0 40 3 84 7 98 7 24 43 70 54 70 3 0 6 -71 6
-159z m398 -46 c15 -25 27 -50 27 -55 0 -6 -30 -10 -66 -10 l-66 0 14 23 c8
12 23 37 32 55 9 17 20 32 24 32 4 0 19 -20 35 -45z m33 -121 c155 7 173 2
160 -48 -9 -35 -60 -48 -197 -51 -190 -4 -273 17 -264 67 5 23 4 22 28 35 12
6 39 6 75 0 31 -5 120 -6 198 -3z m4 -196 c0 -16 -9 -18 -74 -18 -65 0 -74 2
-71 18 2 9 4 17 4 18 1 0 33 1 71 1 61 0 70 -3 70 -19z m330 -425 l0 -333
-405 0 -405 0 0 329 c0 301 1 330 17 333 9 2 191 3 405 3 l388 0 0 -332z
m-1023 194 c41 -71 42 -72 22 -89 -44 -37 -124 6 -136 75 -5 31 -1 40 26 68
18 17 35 28 39 25 3 -4 25 -39 49 -79z m1308 77 c21 -9 45 -56 45 -92 0 -50
-52 -93 -103 -85 -58 9 -59 18 -9 103 26 44 48 80 49 80 1 0 9 -3 18 -6z
m-1446 -278 c55 -56 11 -156 -69 -156 -54 0 -103 56 -94 109 3 14 19 39 36 55
26 23 37 27 66 22 20 -3 47 -16 61 -30z m1630 19 c85 -43 50 -175 -46 -175
-94 0 -126 135 -43 177 33 17 55 16 89 -2z m-1506 -316 c60 -31 74 -97 31
-148 -36 -43 -93 -44 -135 -2 -49 49 -37 112 27 146 35 18 48 19 77 4z m1348
-5 c70 -36 67 -130 -4 -167 -83 -43 -173 65 -115 138 35 45 72 54 119 29z"/>
<path d="M1065 2080 c-74 -28 -77 -130 -5 -160 38 -16 81 0 106 37 14 22 14
32 5 64 -6 21 -16 41 -22 44 -22 14 -65 22 -84 15z m72 -59 c13 -28 4 -55 -25
-70 -27 -14 -66 9 -70 40 -7 57 70 80 95 30z"/>
<path d="M1100 2020 c0 -5 7 -10 16 -10 8 0 12 5 9 10 -3 6 -10 10 -16 10 -5
0 -9 -4 -9 -10z"/>
<path d="M1060 1985 c0 -8 7 -15 15 -15 8 0 15 7 15 15 0 8 -7 15 -15 15 -8 0
-15 -7 -15 -15z"/>
<path d="M1434 2075 c-38 -16 -53 -35 -56 -72 -7 -95 129 -126 162 -37 10 26
4 70 -12 91 -18 22 -63 31 -94 18z m68 -42 c20 -23 15 -53 -12 -75 -32 -26
-80 -3 -80 38 0 48 61 72 92 37z"/>
<path d="M1475 2020 c-3 -5 1 -10 9 -10 9 0 16 5 16 10 0 6 -4 10 -9 10 -6 0
-13 -4 -16 -10z"/>
<path d="M1430 1985 c0 -10 7 -15 18 -13 21 4 19 22 -2 26 -10 2 -16 -3 -16
-13z"/>
<path d="M1100 1441 c-121 -39 -194 -128 -205 -248 l-5 -58 13 65 c28 145 129
233 267 233 101 -1 184 -53 233 -147 23 -45 33 -157 16 -188 -13 -25 -53 -44
-122 -58 -51 -10 -80 -31 -65 -46 3 -3 39 6 79 20 40 14 75 24 76 23 1 -2 -9
-17 -23 -35 -40 -51 -105 -83 -187 -92 l-72 -9 70 3 c48 2 84 10 113 25 46 23
108 83 118 113 3 10 10 18 15 18 13 0 35 55 49 122 l11 57 48 -6 c43 -5 51 -2
81 24 28 25 34 37 33 69 -4 103 -9 110 -89 109 -45 -1 -59 -6 -80 -27 -30 -29
-38 -84 -19 -121 7 -15 9 -30 4 -38 -5 -8 -9 -25 -9 -39 -1 -16 -8 -2 -20 36
-24 73 -82 143 -145 174 -47 23 -145 34 -185 21z m472 -27 c14 -13 -6 -44 -28
-44 -18 0 -25 -7 -29 -27 -14 -63 -40 -80 -50 -33 -9 39 9 84 38 98 24 12 61
15 69 6z m58 -78 c0 -23 -8 -42 -26 -60 -18 -18 -37 -26 -60 -26 -19 0 -34 3
-34 6 0 18 24 44 41 44 19 0 35 26 29 46 -1 4 4 11 12 15 26 17 38 9 38 -25z"/>
<path d="M1577 1304 c-8 -8 1 -24 14 -24 5 0 9 7 9 15 0 15 -12 20 -23 9z"/>
<path d="M1125 1248 c-44 -26 -56 -68 -33 -111 17 -33 39 -46 76 -47 68 0 107
83 64 138 -21 27 -78 38 -107 20z m83 -51 c10 -7 9 -15 -5 -37 -23 -40 -39
-43 -63 -13 -20 26 -25 45 -14 56 8 8 66 3 82 -6z"/>
<path d="M897 1109 c4 -13 8 -18 11 -10 2 7 -1 18 -6 23 -8 8 -9 4 -5 -13z"/>
<path d="M910 1071 c0 -6 4 -13 10 -16 6 -3 7 1 4 9 -7 18 -14 21 -14 7z"/>
<path d="M1610 1039 c0 -11 -8 -28 -17 -37 -16 -16 -16 -17 0 -20 14 -3 17
-15 17 -67 0 -35 5 -67 10 -70 6 -4 10 20 10 64 0 57 3 70 17 73 16 3 16 4 0
20 -9 9 -17 26 -17 37 0 12 -4 21 -10 21 -5 0 -10 -9 -10 -21z"/>
<path d="M930 1032 c0 -13 98 -102 113 -102 5 0 -8 13 -30 29 -22 16 -50 41
-61 56 -12 15 -22 23 -22 17z"/>
<path d="M944 942 c-6 -4 -16 -17 -23 -30 -10 -19 -8 -26 13 -47 31 -31 66
-22 81 20 8 23 6 30 -14 46 -25 20 -39 23 -57 11z"/>
<path d="M1070 920 c8 -5 20 -10 25 -10 6 0 3 5 -5 10 -8 5 -19 10 -25 10 -5
0 -3 -5 5 -10z"/>
<path d="M1523 895 c-14 -11 -16 -18 -7 -31 15 -25 29 -27 47 -9 30 30 -5 65
-40 40z"/>
</g>
</svg>
